<svg width="100%" height="100%" viewBox="0 0 10 16" fill="none" xmlns="http://www.w3.org/2000/svg">
<path d="M0.870013 8.82833L7.47334 15.42C7.5818 15.5294 7.71084 15.6161 7.85301 15.6754C7.99517 15.7346 8.14766 15.7651 8.30168 15.7651C8.45569 15.7651 8.60818 15.7346 8.75035 15.6754C8.89252 15.6161 9.02155 15.5294 9.13001 15.42C9.3473 15.2014 9.46927 14.9057 9.46927 14.5975C9.46927 14.2893 9.3473 13.9936 9.13001 13.775L3.35501 7.94167L9.13001 2.16667C9.3473 1.94808 9.46927 1.65238 9.46927 1.34417C9.46927 1.03595 9.3473 0.740258 9.13001 0.521668C9.02196 0.411432 8.89311 0.323733 8.75092 0.263654C8.60873 0.203574 8.45604 0.17231 8.30168 0.171669C8.14732 0.17231 7.99462 0.203574 7.85244 0.263654C7.71025 0.323733 7.5814 0.411432 7.47334 0.521668L0.870013 7.11333C0.751591 7.22258 0.657081 7.35518 0.592439 7.50276C0.527797 7.65034 0.494425 7.80972 0.494425 7.97083C0.494425 8.13195 0.527797 8.29133 0.592439 8.43891C0.657081 8.58649 0.751591 8.71908 0.870013 8.82833Z" fill="#949494"/>
</svg>
