<svg  width="100%" height="100%" viewBox="0 0 115 26" fill="none" xmlns="http://www.w3.org/2000/svg">
    <path d="M69.3346 9.15139H74.2149V4.83895H71.2079H69.3346V0H64.6022V4.83895H61.4473V9.17646H64.4543H64.6022V17.676C64.6022 22.1138 68.0283 25.7242 72.2924 25.7242H73.8452V20.8351H72.736C70.7149 20.8351 69.31 19.055 69.31 16.9238V16.7984V9.15139H69.3346Z" fill="#ffffff" />
    <path d="M97.3595 21.9884C98.5672 21.9884 99.6024 21.6374 100.44 20.9103C101.303 20.1832 101.722 19.2806 101.722 18.1774V16.6982L97.4827 16.974C96.4475 17.0492 95.6588 17.2999 95.0919 17.7512C94.5496 18.2025 94.2785 18.7792 94.2785 19.5063C94.2785 20.2584 94.5496 20.8853 95.1165 21.3115C95.6834 21.7628 96.4229 21.9884 97.3595 21.9884ZM95.5602 26C93.613 26 92.0109 25.4233 90.7292 24.27C89.4475 23.1167 88.8066 21.6123 88.8066 19.8071C88.8066 17.9518 89.4721 16.4976 90.8278 15.4446C92.1834 14.3915 94.106 13.7898 96.62 13.6394L101.698 13.3385V11.9846C101.698 11.0318 101.402 10.3047 100.786 9.77822C100.194 9.2517 99.356 8.97591 98.3207 8.97591C97.3102 8.97591 96.4968 9.20156 95.856 9.65286C95.2398 10.1042 94.8454 10.731 94.7221 11.5082H89.7186C89.8172 9.50242 90.6552 7.87272 92.2574 6.66925C93.8348 5.44071 95.9545 4.8139 98.5919 4.8139C101.18 4.8139 103.226 5.44071 104.779 6.69433C106.331 7.94794 107.095 9.60271 107.095 11.6586V25.7242H101.796V22.5651H101.673C101.131 23.6432 100.293 24.4706 99.1588 25.0974C98.0496 25.6991 96.8419 26 95.5602 26Z" fill="#ffffff" />
    <path d="M76.5073 25.699V4.83887H81.8313V8.85043H81.9545C82.2996 7.54668 82.8911 6.54378 83.7292 5.86683C84.5672 5.16481 85.5778 4.83887 86.7609 4.83887C87.3278 4.83887 87.87 4.91408 88.3137 5.03945V9.97869C87.7961 9.75304 87.1306 9.65275 86.3172 9.65275C84.9616 9.65275 83.9017 10.0539 83.1623 10.8562C82.3982 11.6585 82.0285 12.7868 82.0285 14.241V25.7241H76.5073V25.699Z" fill="#ffffff" />
    <path d="M43.5771 19.5062H48.3835C48.4821 20.1831 48.8518 20.7347 49.5173 21.1609C50.2074 21.5872 50.9962 21.8128 51.9574 21.8128C52.9187 21.8128 53.7074 21.6122 54.299 21.2362C54.8905 20.835 55.1863 20.3336 55.1863 19.7067C55.1863 19.1552 54.9645 18.7039 54.4962 18.403C54.0279 18.077 53.2391 17.8012 52.1053 17.5756L49.5173 17.0491C47.6934 16.6981 46.3131 16.0211 45.3764 15.0433C44.4398 14.0655 43.9715 12.7868 43.9715 11.2574C43.9715 9.32681 44.711 7.77233 46.1652 6.59393C47.6441 5.41553 49.5419 4.83887 51.8589 4.83887C54.3236 4.83887 56.2462 5.39046 57.6511 6.54378C59.056 7.67204 59.7708 9.17638 59.8201 11.0819H55.1617C55.1124 10.3548 54.792 9.77811 54.2004 9.35188C53.6089 8.92565 52.8448 8.72507 51.9081 8.72507C51.0208 8.72507 50.306 8.90058 49.7884 9.27667C49.2462 9.65275 48.9997 10.1542 48.9997 10.7559C48.9997 11.3075 49.2215 11.7338 49.6898 12.0597C50.1581 12.3856 50.9222 12.6614 51.9574 12.862L54.5208 13.3635C56.468 13.7395 57.8976 14.3914 58.8342 15.3442C59.7462 16.2718 60.2145 17.5505 60.2145 19.1301C60.2145 21.1359 59.4504 22.7405 57.9469 23.9189C56.4434 25.0973 54.3976 25.699 51.8342 25.699C49.2955 25.699 47.299 25.1474 45.8201 24.0693C44.3659 22.9661 43.6018 21.4618 43.5771 19.5062Z" fill="#ffffff" />
    <path d="M14.419 4.78894H9.53876H4.65846H0V9.77833H4.65846H9.53876H14.419V20.7098H9.78524H9.53876H4.88029V25.6742H9.53876H9.78524H14.419L19.324 20.7098V9.77833L14.419 4.78894Z" fill="#ffffff" />
    <path d="M4.8803 15.7203H0V15.9711V20.7097H4.8803V15.9711V15.7203Z" fill="#ffffff" />
    <path d="M114.071 20.7098H109.19V25.6741H114.071V20.7098Z" fill="#ffffff" />
    <path d="M41.9259 14.7927C41.9259 14.7927 41.9752 13.6895 41.7534 12.7618C40.6196 8.19867 36.5527 4.8139 31.7217 4.8139C26.8907 4.8139 22.7991 8.17359 21.6653 12.7368C21.5667 13.2382 21.4927 13.8149 21.4681 14.4667C21.4435 15.3944 21.5174 16.2218 21.6406 16.8737C22.3801 21.8631 26.6195 25.6991 31.7463 25.6991C36.035 25.6991 39.7322 22.9913 41.2358 19.1803L35.9611 19.1051C34.9998 20.3086 33.4717 21.1109 31.7463 21.1109C29.1583 21.1109 27.0139 19.3308 26.5702 16.999C31.6724 16.999 36.7498 16.999 41.852 16.999C41.8766 16.648 41.9013 16.2719 41.9259 15.8708C41.9013 15.4947 41.9259 15.1186 41.9259 14.7927ZM26.6195 12.7368C27.0878 10.7059 29.1829 9.17648 31.697 9.17648C34.2111 9.17648 36.3062 10.7059 36.7745 12.7368C33.3977 12.7368 29.9963 12.7368 26.6195 12.7368Z" fill="#ffffff" />
</svg>
