<?xml version="1.0" encoding="utf-8"?>
<!-- Generator: Adobe Illustrator 26.3.1, SVG Export Plug-In . SVG Version: 6.00 Build 0)  -->
<svg width="100%" height="100%" version="1.1" id="Layer_1" xmlns="http://www.w3.org/2000/svg" xmlns:xlink="http://www.w3.org/1999/xlink" x="0px" y="0px"
	 viewBox="0 0 841.9 595.3" style="enable-background:new 0 0 841.9 595.3;" xml:space="preserve">
<style type="text/css">
	.st0{fill:#949494;}
</style>
<path class="st0" d="M454.6,266.8L208.9,21.6c-4-4.1-8.8-7.3-14.1-9.5c-5.3-2.2-11-3.3-16.7-3.3c-5.7,0-11.4,1.1-16.7,3.3
	c-5.3,2.2-10.1,5.4-14.1,9.5c-8.1,8.1-12.6,19.1-12.6,30.6s4.5,22.5,12.6,30.6l214.9,217L147.3,514.7c-8.1,8.1-12.6,19.1-12.6,30.6
	s4.5,22.5,12.6,30.6c4,4.1,8.8,7.4,14.1,9.6c5.3,2.2,11,3.4,16.7,3.4c5.7,0,11.4-1.2,16.7-3.4c5.3-2.2,10.1-5.5,14.1-9.6
	l245.7-245.2c4.4-4.1,7.9-9,10.3-14.5c2.4-5.5,3.6-11.4,3.6-17.4c0-6-1.2-11.9-3.6-17.4C462.5,275.8,459,270.9,454.6,266.8z"/>
<path class="st0" d="M696.6,266.8L450.9,21.6c-4-4.1-8.8-7.3-14.1-9.5c-5.3-2.2-11-3.3-16.7-3.3c-5.7,0-11.4,1.1-16.7,3.3
	c-5.3,2.2-10.1,5.4-14.1,9.5c-8.1,8.1-12.6,19.1-12.6,30.6s4.5,22.5,12.6,30.6l214.9,217L389.3,514.7c-8.1,8.1-12.6,19.1-12.6,30.6
	s4.5,22.5,12.6,30.6c4,4.1,8.8,7.4,14.1,9.6c5.3,2.2,11,3.4,16.7,3.4c5.7,0,11.4-1.2,16.7-3.4c5.3-2.2,10.1-5.5,14.1-9.6
	l245.7-245.2c4.4-4.1,7.9-9,10.3-14.5c2.4-5.5,3.6-11.4,3.6-17.4c0-6-1.2-11.9-3.6-17.4C704.5,275.8,701,270.9,696.6,266.8z"/>
</svg>
