<svg width="100%" height="100%" viewBox="0 0 10 16" fill="none" xmlns="http://www.w3.org/2000/svg">
<path d="M9.12999 7.17167L2.52666 0.579999C2.4182 0.47065 2.28916 0.383857 2.14699 0.324626C2.00483 0.265396 1.85234 0.234901 1.69832 0.234901C1.54431 0.234901 1.39182 0.265396 1.24965 0.324626C1.10748 0.383857 0.978446 0.47065 0.869989 0.579999C0.652696 0.798589 0.530731 1.09428 0.530731 1.4025C0.530731 1.71072 0.652696 2.00641 0.869989 2.225L6.64499 8.05833L0.869989 13.8333C0.652696 14.0519 0.530731 14.3476 0.530731 14.6558C0.530731 14.964 0.652696 15.2597 0.869989 15.4783C0.978039 15.5886 1.10689 15.6763 1.24908 15.7363C1.39127 15.7964 1.54396 15.8277 1.69832 15.8283C1.85268 15.8277 2.00538 15.7964 2.14756 15.7363C2.28975 15.6763 2.4186 15.5886 2.52666 15.4783L9.12999 8.88667C9.24841 8.77742 9.34292 8.64482 9.40756 8.49724C9.4722 8.34966 9.50558 8.19028 9.50558 8.02917C9.50558 7.86805 9.4722 7.70867 9.40756 7.56109C9.34292 7.41351 9.24841 7.28092 9.12999 7.17167Z" fill="#949494"/>
</svg>
